<svg width="644" height="960" viewBox="0 0 644 960" fill="none" xmlns="http://www.w3.org/2000/svg">
<path d="M544.08 800L429.2 420.8C472.911 396.976 507.439 359.27 527.334 313.637C547.229 268.004 551.356 217.044 539.063 168.804C526.771 120.564 498.759 77.7939 459.452 47.2469C420.144 16.6999 371.781 0.117065 322 0.117065C272.219 0.117065 223.856 16.6999 184.548 47.2469C145.241 77.7939 117.229 120.564 104.937 168.804C92.6441 217.044 96.771 268.004 116.666 313.637C136.561 359.27 171.09 396.976 214.8 420.8L99.9201 800C-41.1999 800 -15.28 960 74.96 960H569.04C658.64 960 685.52 800 544.08 800V800Z" fill="#FFF5E7"/>
</svg>
