<svg width="644" height="960" viewBox="0 0 644 960" fill="none" xmlns="http://www.w3.org/2000/svg">
<path d="M130 384H514C547.948 384 580.505 370.514 604.51 346.51C628.514 322.505 642 289.948 642 256V32C642 23.5131 638.629 15.3737 632.627 9.37258C626.626 3.37142 618.487 0 610 0H546C537.513 0 529.374 3.37142 523.373 9.37258C517.371 15.3737 514 23.5131 514 32V128H418V32C418 14.4 396.56 0 370 0H274C247.44 0 226 14.4 226 32V128H130V32C130 23.5131 126.629 15.3737 120.627 9.37258C114.626 3.37142 106.487 0 98 0H34C25.5131 0 17.3737 3.37142 11.3726 9.37258C5.37141 15.3737 1.99998 23.5131 1.99998 32V256C1.99998 289.948 15.4857 322.505 39.4903 346.51C63.495 370.514 96.0523 384 130 384ZM540.88 800L482 448H162L103.12 800C-43.44 800 -14.32 960 74.96 960H569.04C657.04 960 688.4 800 540.88 800Z" fill="#FFF5E7"/>
</svg>
