<svg width="640" height="1024" viewBox="0 0 640 1024" fill="none" xmlns="http://www.w3.org/2000/svg">
<path d="M246.316 155.762C214.738 145.06 192 115.194 192 80C192 35.818 227.818 0 272 0H367.592C411.774 0 447.592 35.818 447.592 80C447.592 115.082 425.002 144.868 393.582 155.658C441.568 188.972 490.736 249.336 530.988 319.758L289.858 560.886C287.608 563.136 286.344 566.189 286.344 569.371C286.344 572.553 287.608 575.606 289.858 577.856L318.142 606.14C320.392 608.39 323.445 609.654 326.627 609.654C329.809 609.654 332.862 608.39 335.112 606.14L561.8 379.452C597.316 456.046 620.542 538.338 620.542 607.998C620.542 715.57 574.748 759.574 503.65 780.064V896H136.348V780.06C65.262 759.568 19.478 715.562 19.478 608C19.478 451.942 136.04 232.468 246.316 155.762V155.762ZM640 1000V952C640 938.746 629.254 928 616 928H24C10.746 928 0 938.746 0 952V1000C0 1013.25 10.746 1024 24 1024H616C629.254 1024 640 1013.25 640 1000Z" fill="#FFF5E7"/>
</svg>
