<svg width="896" height="1024" viewBox="0 0 896 1024" fill="none" xmlns="http://www.w3.org/2000/svg">
<path d="M832.001 952V1000C832.001 1013.25 821.255 1024 808.001 1024H88.0007C74.7467 1024 64.0007 1013.25 64.0007 1000V952C64.0007 938.746 74.7467 928 88.0007 928H808.001C821.255 928 832.001 938.746 832.001 952ZM815.935 304H496.001V208H596.001C599.183 208 602.236 206.736 604.486 204.485C606.736 202.235 608.001 199.183 608.001 196V124C608.001 120.817 606.736 117.765 604.486 115.515C602.236 113.264 599.183 112 596.001 112H496.001V12C496.001 8.8174 494.736 5.76516 492.486 3.51472C490.236 1.26428 487.183 0 484.001 0L412.001 0C408.818 0 405.766 1.26428 403.515 3.51472C401.265 5.76516 400.001 8.8174 400.001 12V112H300.001C296.818 112 293.766 113.264 291.515 115.515C289.265 117.765 288.001 120.817 288.001 124V196C288.001 199.183 289.265 202.235 291.515 204.485C293.766 206.736 296.818 208 300.001 208H400.001V304H80.0667C24.9187 304 -13.6913 358.488 4.59068 410.518L175.165 896H720.837L891.411 410.518C909.693 358.488 871.083 304 815.935 304Z" fill="#501C0B"/>
</svg>
