<svg width="666" height="956" viewBox="0 0 666 956" fill="none" xmlns="http://www.w3.org/2000/svg">
<path d="M500.04 795.44C500.04 795.44 612.36 731.44 628.04 667.44C643.72 603.44 548.68 492.4 357 368.88C431.56 318.32 487.88 332.72 524.04 356.72C531.18 361.189 539.131 364.204 547.439 365.593C555.746 366.983 564.246 366.718 572.452 364.816C580.657 362.913 588.406 359.409 595.254 354.506C602.102 349.602 607.915 343.395 612.36 336.24L626.44 313.52C634.919 299.768 637.884 283.317 634.738 267.47C631.592 251.622 622.569 237.551 609.48 228.08L310.6 12.72C303.172 7.32096 294.67 3.58348 285.67 1.76138C276.67 -0.0607125 267.383 0.0752473 258.44 2.16003C-38.5201 76.72 -98.0401 520.24 181 795.44C-75.0001 795.44 28.3599 955.44 93.9599 955.44H589C664.2 955.44 747.08 795.44 500.04 795.44Z" fill="#501C0B"/>
</svg>
