<svg width="1000" height="1024" viewBox="0 0 1000 1024" fill="none" xmlns="http://www.w3.org/2000/svg">
<path d="M860 1024H140C126.746 1024 116 1013.25 116 1000V952C116 938.746 126.746 928 140 928H860C873.254 928 884 938.746 884 952V1000C884 1013.25 873.254 1024 860 1024ZM499.158 0C437.302 0 387.158 50.144 387.158 112C387.158 173.856 437.302 224 499.158 224C561.014 224 611.158 173.856 611.158 112C611.158 50.144 561.014 0 499.158 0ZM908.294 309.268C896.758 303.178 882.462 307.404 876.13 318.808C858.898 349.84 830.636 394.41 788 394.41C730.572 394.41 726.75 354.802 724.628 279.326C724.262 266.342 713.626 255.998 700.638 255.998H618.626C608.276 255.998 599.118 262.654 595.85 272.474C578.07 325.892 543.704 354.458 500 354.458C456.296 354.458 421.932 325.892 404.15 272.474C400.882 262.654 391.724 255.998 381.374 255.998H299.364C286.374 255.998 275.738 266.346 275.374 279.332C273.27 354.616 269.506 394.41 211.998 394.41C170.616 394.41 144.364 353.962 123.148 318.36C116.616 307.4 102.632 303.498 91.3501 309.454L12.9921 350.812C7.72348 353.593 3.67738 358.233 1.6406 363.832C-0.396176 369.43 -0.278029 375.586 1.97206 381.102L212 896H788L998.028 381.104C1000.28 375.588 1000.4 369.432 998.359 363.834C996.323 358.235 992.277 353.595 987.008 350.814L908.294 309.268V309.268Z" fill="#501C0B"/>
</svg>
